<svg version="1" xmlns="http://www.w3.org/2000/svg" width="346.667" height="346.667" viewBox="0 0 260.000000 260.000000"><path d="M135.6 15.9c-.4.6-1.6 1.1-2.6 1.1-1.1 0-2.7 1.1-3.6 2.5-1.5 2.3-1.5 2.7 1 7.1 2.3 4.1 2.6 5.8 2.6 14.1 0 10-1 13.3-3.8 13.3-3.7 0-5.8 5.2-2.7 6.4 2.1.8 1.9 4.9-.3 6.9-1.5 1.3-4 1.7-11.8 1.7-13 0-20.4 1.3-25.6 4.5-2.4 1.4-5 3-5.8 3.5-.8.5-2.7 1.1-4.2 1.5-1.6.3-2.8 1.2-2.8 2s-.4 1.5-1 1.5c-.5 0-1.7 1.4-2.6 3.1l-1.6 3.1 3.9-2.8 3.8-2.9-4.6 5.5c-6.5 7.6-9.9 18.1-9.9 29.9 0 7.9.8 11.4 2.4 11.2 2.2-.3 2.6.4 2.6 4.9 0 2.8.7 6.5 1.6 8.1 1.8 3.6.9 5.3-1.3 2.4-6-8.1-9.3-20.1-8.8-32.3.3-8.9-.6-10.1-4.4-6.3-1.2 1.2-2.3 1.6-3.2 1-.8-.5-1.7-.9-2.1-.9-1.5 0-9.3 7.4-9 8.7.2.7-.2 1.2-.9 1.1-.7-.2-1.7 1.8-2.4 4.4-1.3 4.8-.9 10.2.6 9.2.5-.3.9.4.9 1.6 0 1.2-.4 1.9-.9 1.6-.5-.3-1.1.4-1.4 1.6-.4 1.5.1 2.7 1.9 4 3.4 2.7 3 3.7-1.5 4.4-4.5.7-6 2.9-3.1 4.4 2.2 1.2 5 .3 5-1.6 0-1.1.4-1.2 1.8-.3 2.4 1.5 2.4 3.9.1 3.9-2.5 0-1.4 2.7 1.4 3.6 3.4 1.2 14-.2 24.5-3.2 1.3-.4 2.2-.2 2.2.4 0 1.2-2.4 2-18 5.7-9 2.1-11.3 2.3-16 1.5-3-.6-9.2-1.5-13.8-2-4.6-.5-9.1-1.4-10.2-2-3.4-1.8-4.7-1.1-5.4 2.6-1 5.1 1.2 8.2 6.1 8.6 3.8.3 3.8.3 4.3 5.4.6 6.3 2.3 8.4 6.4 8.4 3 0 8.7-2.9 5.9-3-.7 0-1.3-.7-1.3-1.6 0-1.1.6-1.4 2.3-.9 1.2.4 2.6 1.1 3.1 1.6.6.5 1.9.9 3.1.9 2 0 2 .3 1.3 9.3-.7 9.6-.3 14.3 1.5 16.5.6.8 3.2 2.4 5.9 3.8 5.3 2.7 8.3 7.2 7.2 10.7-1.2 3.7-.5 10.6 1.5 14.5 2.4 4.7 4.6 6.6 10.4 9.2 4 1.8 6.5 2.1 17.9 2 11.2-.1 15.1.3 24.8 2.6 9.9 2.4 13.9 2.8 29 2.9 16.5.2 17.8.4 23.4 2.9 11.9 5.3 17.3 4.4 24.6-4.3 2.4-2.8 4.9-5.1 5.7-5.1.7 0 1.3-.4 1.3-1 0-.5-.7-.7-1.5-.4-.8.4-1.5.1-1.5-.5s.7-1.1 1.5-1.1 1.9-.9 2.5-2.1c.9-1.5 1.5-1.8 2.4-1 1.5 1.3 2.6.4 2.6-2.1 0-2.1-1.1-2.3-2.8-.6-.9.9-1.2.9-1.1-.3.1-2.8 1.5-5.3 2.3-4.1 1.5 2.5 3 .7 3.6-4.3.3-1.8 2.3-3.6 3.6-3.1 1.5.6 2.3-2.3 1.3-4.9-.7-1.9-.8-1.8-.8.3-.1 1.3-.5 2-1.1 1.7-.6-.4-.8-1-.5-1.5 1-1.7-.6-3.8-2.6-3.3-1 .3-1.9 0-1.9-.6s.7-1.1 1.6-1.1c1.2 0 .8-.9-1.5-3.5-3.1-3.5-3.1-3.5-1.1-5.5 1.1-1.1 2-2.5 2-3 0-1.9 2.8-1 5.9 1.9 1.7 1.6 3.1 3.9 3.1 5.3 0 1.8.2 2 1 .8 1.4-2.2 1.2-7.3-.5-10.7-2.2-4.5-4-5.7-6.4-4.4-2.8 1.6-11.4.3-10.7-1.6.4-.8.6-2.1.6-2.8 0-1.3 2.9-2.9 3.8-2.1.2.3-.3 1.2-1.2 2.1-2.4 2.4-1.1 3.5 4 3.5 4.5 0 4.6 0 3.9-3-.5-2.3-.3-3 .9-3 .9 0 1.6-.8 1.6-2.1 0-1.1-.5-1.7-1-1.4-.6.3-1-.4-.9-1.7 0-1.3.3-1.7.6-1 1 2.5 2.1 0 1.6-3.6-.7-4.3-1.2-4.8-6.5-5.6-2.2-.4-3.6-1.1-3.3-1.6.4-.6 1.1-.8 1.6-.4.5.3 2.5.7 4.3.9 2.9.2 3.4 0 3.3-1.9-.1-1.1.2-3.2.5-4.6.7-2.3.2-2.8-6.5-5.9-4-1.9-7.5-3.3-7.9-3.2-.5 0-.8-.5-.8-1.3 0-1.1.7-1.1 3.8.4 2.1 1 5 2.2 6.5 2.5 1.5.4 3 1.1 3.3 1.6.3.5 1.2.9 2.1.9 1.3 0 1.3-.3.3-1.5-1.7-2-.4-1.9 2.8.3 4.6 3.2 12.5 5.3 16.1 4.2 1.8-.5 3.1-.5 3.1.1 0 .5-1.1 1.1-2.5 1.5-5 1.2-2.1 3.4 4.6 3.4h4l-1.7-3.1-1.6-3.1 7.4-7.2c4-3.9 8.5-9.1 10-11.6 9.2-15.9 7.2-37.6-4.4-46-2.2-1.7-4.7-3-5.4-3-.7 0-3.6-2-6.5-4.5-6.1-5.2-12.9-8-23.2-9.6-4.9-.8-8-1.9-9.7-3.4-4.2-3.8-10.3-6.3-20.2-8.3-8.3-1.7-17.8-5.3-17.8-6.7 0-.3 1.9-2.6 4.2-5.1 4.9-5.4 9.5-7.9 16-8.8 4.7-.7 4.7-.7 11.3 5.4 8.3 7.7 10.7 7.8 13.8.6l2.1-4.9-3.1-2.7c-6.5-5.9-22.9-6.5-32.5-1.3-2.8 1.5-7.6 5.5-10.7 8.8l-5.6 6.1-7.7-.8c-12-1.1-11.7-.8-10.2-12.9 1.1-8.4 1.8-10.6 3.8-12.5 3.3-3.4 4.3-9.1 1.9-11.5-2.3-2.2-6.9-3.4-7.7-2zM172 65.8c0 .9-8.4 5.2-10 5.2-1.8 0-1-2.9 1.2-4.4 2.3-1.7 8.8-2.2 8.8-.8zm18.2 7.7c8.3 6.2 10.8 15.5 6.7 24.5-3.8 8.5-10.5 13.1-19 13.2-9.5 0-15.9-7-15.9-17.6 0-9.1 4.3-15.5 14-21 6-3.4 8.8-3.3 14.2.9zM115 71.9c0 .4-3 1.1-6.7 1.4-3.8.4-9 1-11.8 1.3-6.6.9-5-1.1 2-2.4 6.5-1.3 16.5-1.4 16.5-.3zm14.6 24c9.7 4.2 16.8 14 18.4 25.3 1 6.9.6 9.5-2.1 14.8-2.3 4.6-9.9 12-9.9 9.8 0-1 .7-2.1 1.5-2.6.9-.4 3.1-3.9 5-7.7 2.7-5.2 3.5-8.1 3.5-12.1 0-11.2-5.9-20.8-15.1-24.6-1-.4.7 2.5 3.6 6.3 5.3 7.1 8.5 14.7 8.5 20.1 0 4.2-2.6 8.7-5.5 9.4-1.4.3-2.5 1.4-2.5 2.3 0 .9-1.2 2.7-2.5 4-1.5 1.3-2.5 3.4-2.5 5 0 4-4.3 6.1-12.2 6.1-13.6 0-23.1-5.3-28.5-15.7-3.7-7.3-5.2-17.4-3.4-23.2 2.1-7.2 10.8-15 20.9-18.8 5.2-1.9 16.5-1.1 22.8 1.6zM236.7 99c1.8 1 4.5 3.9 6 6.2 2.5 3.9 2.8 5.1 2.8 13.3 0 7.6-.4 9.9-2.6 14.5-3.3 7-7.9 12.3-13.6 15.7-3.5 2-5.8 2.6-11.6 2.7l-7.1.1-3-6c-2.7-5.3-3.1-7-3.1-15 0-11.1 2.7-17.6 10.3-25.2 7.7-7.7 15.9-10 21.9-6.3zM53.4 120.7c-.7 1.6-1.4 3.3-1.4 4 0 1.5-3.2 3.3-5.7 3.2-1.2-.1-1-.3.7-.8 1.7-.4 3.2-2.1 4.5-4.9 1.1-2.3 2.3-4.2 2.7-4.2.4 0 0 1.2-.8 2.7zm-7.9 3.4c-.9 1.4-4.5 1.1-4.5-.4 0-.8.3-1.7.6-2 1-.9 4.6 1.2 3.9 2.4zm134 3.2c.7.7.5.8-.7.4-.9-.3-1.9 0-2.2.9-.3.8.1 1.4.9 1.4 1.9 0 3.1 4.8 1.8 6.9-1.5 2.4-6.6 4.8-11.1 5.3l-4.2.4V138c0-2.5-.3-5.5-.6-6.8-.5-1.7-.2-2.2 1.2-2.2 1.1 0 2.4-.8 3.1-1.9 1-1.5 2-1.8 6-1.4 2.6.3 5.3 1 5.8 1.6zm-18.4 9c-1.3 1.3-2.6.3-1.6-1.2.3-.6 1.1-.8 1.7-.5.6.4.6 1-.1 1.7zm26.9 1.6c0 .6-.4 1.3-1 1.6-.5.3-1-.1-1-.9 0-.9.5-1.6 1-1.6.6 0 1 .4 1 .9zm-56 11.6c0 .2-1 .9-2.2 1.5-2.2 1.1-2.2 1-.4-.4 2.1-1.7 2.6-1.9 2.6-1.1zm20 .5c0 .5-.6 1-1.4 1-.7 0-1.8.6-2.4 1.3-.8.9 0 1.1 3.5.8 2.5-.2 5.5.1 6.7.7 1.1.6 2.9 1.3 3.9 1.6 1.7.5 1.6.9-.9 4.2-2.9 3.8-4.9 4.8-12.1 6.5-4.7 1-12.8 4.8-10.5 4.9.7 0 1 .4.7 1-.6.9 2.8 1.5 6.8 1 1-.1 2.4.3 3 .8 1.2 1 19.6.1 27.5-1.3 3.3-.6 4.6-3.5 1.6-3.5-1.7 0-10.4-8.2-10.4-9.7.1-5.3 13.8-6 19.8-1.1 2 1.7 1.2 18.2-1.3 25.8-2.5 7.9-9 16.7-14.5 19.7-4.4 2.3-4.8 2.4-22.5 1.7-9.9-.4-18.2-1-18.5-1.3-.3-.4-1.8-1.5-3.3-2.4-1.6-1-3.7-3.3-4.7-5l-1.9-3.2-8.5.3c-7.3.3-8.6.6-8.6 2 0 1.1-.6.6-1.5-1.2-.9-1.6-1.3-3.6-1.1-4.3.3-.7.1-1.3-.4-1.3-.6 0-1-.5-1-1.1 0-.6.8-.8 1.9-.4 4.2 1.3 6-6.9 2.3-10.8-2.5-2.6-2.8-3.7-.9-3.7 1.7.1 4.7 6.4 4.7 10 0 1.7-.9 3.9-2 5-3.3 3.3-2.4 4 4.8 4 6.5 0 6.8-.1 8.6-3.1 1.5-2.6 1.7-4.3 1.1-10.2-.3-3.9-1.1-7.9-1.6-8.9-1-1.8-.2-6.9 1-6.6 1.1.3 17.6-5.4 18.6-6.5.7-.7.4-.8-.7-.4-1 .4-1.8.2-1.8-.3s1.2-1.2 2.8-1.5c1.5-.3 4.7-1.7 7.2-3 5.2-2.7 6-2.9 6-1.5zm-17 6.5c0 .2-3.3 1.4-7.2 2.6-6 1.8-8.8 2-15.8 1.6-9.2-.7-13-1.5-13-2.7 0-.4 1.9-.3 4.3.2 4.8 1.1 23 .4 26.7-1.1 2.7-1.1 5-1.4 5-.6zm-66 5c0 2.3 6.5 3 9.6 1 5.1-3.3 16.8.9 19.7 7 1.9 4 1.4 8-1 8.9-1.1.5-1.4 1.5-1 4 .7 4.4-.9 6.5-5.3 6.7-4.7.3-9.1-2.2-13.7-7.7-3.1-3.9-3.9-5.7-4.3-10.3-.5-5-.8-5.7-3.3-6.5-2.2-.8-4.2-.5-9 1.2-7.6 2.7-8.7 2.7-8.7.2 0-4 3.5-6 10.5-6 5 0 6.5.3 6.5 1.5zm129.8 2.4c1.4.9 1.3 1-1 1.1-2.4 0-2.8-.4-2.8-2.8.1-2.3.2-2.4 1.1-1 .5 1 1.7 2.2 2.7 2.7zm-165-.7c.5 2.7-4.1 3.3-9.3 1.2l-4.5-1.9 4.7-.6c6.9-.9 8.7-.6 9.1 1.3zm82.1 4.4c.2.2-1.9.4-4.7.4-2.9 0-5.2-.4-5.2-.9 0-.8 9-.3 9.9.5zm76.8 4.1c-.3 1-.5.4-.5-1.2 0-1.7.2-2.4.5-1.8.2.7.2 2.1 0 3zM118 171c0 1.2-14.3.7-14.7-.5-.2-.6 2.5-.9 7.2-.7 4.1.2 7.5.8 7.5 1.2zm-63.7 4.5c-.3.9-.8 1.4-1 1.1-.3-.3-.2-.9.2-1.5.9-1.6 1.5-1.3.8.4zm9.5 2.2c-1 .2-2.8.2-4 0-1.3-.2-.5-.4 1.7-.4 2.2-.1 3.2.1 2.3.4zm37.9 2.5c-.3.8-.6.5-.6-.6-.1-1.1.2-1.7.5-1.3.3.3.4 1.2.1 1.9zm-61 5c-.3.7-.5.2-.5-1.2s.2-1.9.5-1.3c.2.7.2 1.9 0 2.5zm62.3-1.1c0 .5-.4.9-1 .9-.5 0-1-.7-1-1.6 0-.8.5-1.2 1-.9.6.3 1 1 1 1.6zm-50 2.8c0 2.4-2 4.1-4.9 4.1-5.9-.1-6.3-4.2-.7-6.5 3.4-1.5 5.6-.5 5.6 2.4zm5.7 2.7c-1.2 1.2-3.7-.5-3-2.1.5-1.5.7-1.5 2.1-.1.9.9 1.3 1.8.9 2.2zm-6 9.1c-.3 1-.5.2-.5-1.7s.2-2.7.5-1.8c.2 1 .2 2.6 0 3.5zm30.1-.1l6 2.6 4-2.1c4.7-2.4 5.2-2.5 5.2-1.1 0 .5-.8 1-1.9 1-1 0-3.5 1.1-5.5 2.5-3.4 2.3-5.8 3.3-4.3 1.9.4-.4-1.5-1.8-4.1-3.2-8.8-4.6-8.4-5.6.6-1.6zm13.6 2.9c-.4.8-1.1 1.5-1.6 1.5-.6 0-.5-.6.2-1.5.7-.8 1.4-1.5 1.6-1.5.2 0 .1.7-.2 1.5zm-29.3 2.2c1.3 1.6 1.2 1.7-.3.4-1-.7-1.8-1.5-1.8-1.7 0-.8.8-.3 2.1 1.3zm7.9-.2c.7.9 1 1.8.6 2.2-.3.3.1 1.5 1.1 2.5 1.5 1.7 1.5 1.8-1.4 1.8-1.7 0-3.7-.7-4.4-1.7-1.3-1.5-1.2-1.5.9-.4 2.9 1.5 3.2 1.3 2.1-1.6-.5-1.5-1.4-2.1-2.4-1.7-1.1.5-1.4.2-.9-1 .8-2 2.8-2.1 4.4-.1zm-23 2.1c0 .8-.5 1.2-1 .9-.6-.4-.8-1.1-.5-1.6.9-1.4 1.5-1.1 1.5.7zm75.7 4.6c.6 7-1.3 8.4-12.3 9.2-7.1.4-9.5.2-11-.9-1.8-1.3-1.7-1.4 1.1-.7 1.7.4 6.5.6 10.8.4 7.5-.3 7.8-.5 9.3-3.4 1.3-2.4 1.4-3.9.6-7.1-.7-2.7-.7-3.6 0-2.9.6.6 1.2 3 1.5 5.4zM84.5 209c-.3.5-1.1 1-1.6 1-.6 0-.7-.5-.4-1 .3-.6 1.1-1 1.6-1 .6 0 .7.4.4 1zm11 2.9l2 2.4-2.2-1.2c-1.3-.6-2.3-1.9-2.3-2.8 0-.9.1-1.4.3-1.2.1.2 1.1 1.5 2.2 2.8zM181 215c0 4.4 1.7 6.2 8 8.3 2.5.9 3.7 1.6 2.8 1.7-3 0-9.8-3.1-10.8-5.1-.6-1-1-3-1-4.4 0-1.4-.5-3.6-1.2-4.8-1-2-1-2.1.5-.8 1 .8 1.7 2.8 1.7 5.1zm-112.5-1.1c-.3 1.2-1.1 2.1-1.6 2.1-1 0-1.2-2.1-.3-4.5 1-2.4 2.7-.2 1.9 2.4zm55-2.9c.7 1.2-1.9 1.2-5.5 0-2.2-.7-2.1-.8 1.2-.9 2-.1 4 .3 4.3.9zm-13 2.3c2.4 1.8 1.1 4-1.8 3.1-2.4-.7-3.8-2.4-3.1-3.6.8-1.2 2.8-1 4.9.5zM145 215c.6 1.1.7 2 .3 2-.5 0-1.4-.9-2.1-2-.7-1.1-.8-2-.2-2 .5 0 1.4.9 2 2zm13 .5c-.7.9-1.5 1.3-1.8 1-.3-.2.1-1.1.8-2 .7-.9 1.5-1.3 1.8-1 .3.2-.1 1.1-.8 2zm4.6.2c-1 1-1.9-.5-1-1.8.6-1.1.8-1.1 1.2 0 .2.7.1 1.5-.2 1.8zM80 214.4c0 1.8-2.4 6.5-3.1 6-1-.6-1.2-4.8-.2-5.7.7-.7 3.3-1 3.3-.3zm57 .4c0 1.3-1.2 2.2-2.2 1.6-1-.6-.1-2.4 1.3-2.4.5 0 .9.4.9.8zm-67.3 4.4c-.3.8-.6.5-.6-.6-.1-1.1.2-1.7.5-1.3.3.3.4 1.2.1 1.9zm85.8-.2c.3.5-1.5.7-4.7.3-7-.8-7.4-1.3-1-1.3 2.8 0 5.3.4 5.7 1zm39.3.7c-.4 2-3.5 3-5 1.5s0-3.2 2.8-3.2c1.9 0 2.5.5 2.2 1.7zm-121.8.8c0 .8-.4 1.5-1 1.5-.5 0-.7-.7-.4-1.5.4-.8.8-1.5 1-1.5.2 0 .4.7.4 1.5zm48.8 6.5c-.6 2.3-1.2 3.9-1.4 3.7-.6-.6.9-7.7 1.6-7.7.4 0 .3 1.8-.2 4zm-13.8 7c-1.6 6-2.3 4.3-.8-2.1.7-3 1.4-4.6 1.6-3.7.2.9-.2 3.5-.8 5.8zm9 2c0 1.4-.6 2-2.2 1.9-1.7-.1-1.9-.2-.5-.6.9-.2 1.7-1.1 1.7-1.9 0-.8.2-1.4.5-1.4s.5.9.5 2zm-7.9 1.3c-1 .9-1.1.8-.5-.6.3-1 .9-1.5 1.2-1.2.3.3 0 1.1-.7 1.8z"/><path d="M173 128c0 .5.5 1 1.1 1 .5 0 .7-.5.4-1-.3-.6-.8-1-1.1-1-.2 0-.4.4-.4 1zM126.6 175.7c-1.6 4.9 6.9 15.9 15.5 20.1 11 5.3 20.6 4.6 27.3-2.2 3.3-3.3 10.6-15.8 10.6-18.1 0-1.5-1.7-.1-3.2 2.5-.9 1.6-2.9 3.8-4.5 4.7-1.5 1-2.9 2.5-3.1 3.3-.7 3-5.4 8.1-8.9 9.5-7.4 3.1-16.6.8-24.1-6-2.6-2.4-4.5-4.5-4.2-4.8.3-.3 3 .1 6 .9 8.2 2.1 19.8 1.8 23.5-.6 1.7-1.1 3.1-2.8 3.1-3.7.1-1 .3-2.5.5-3.3.3-1.1-.7-1.6-4.2-1.8-4.5-.3-4.5-.3-5.5 3.5-.8 3.4-1.3 3.8-4.4 4.1-6.1.6-22.6-5.6-23.3-8.7-.2-1.2-.5-1.1-1.1.6zM207.7 158.6c-.3.3.3 1.5 1.4 2.7 1 1.1 1.9 3 1.9 4.1 0 1.4 1.2 2.7 3.8 3.8 2 1 6.4 3.3 9.7 5.3 3.3 1.9 6.3 3.5 6.8 3.5 1.5 0 .6-2.2-1.9-4.4-2.5-2.1-2.5-2.3-1-3.9 1-.9 2.8-1.7 4-1.7 1.3 0 3-.7 3.7-1.7 1.3-1.5 1-1.6-3.4-1.1-5.6.7-20.5-3.2-21.9-5.6-.9-1.7-2-2-3.1-1z"/></svg>